# xmcd
#
# Track frame offsets:
#	150
#	14365
#	23705
#	34170
#	46087
#	60343
#	74009
#	85432
#	99754
#	111269
#	124481
#	138532
#	153147
#	164496
#	179961
#	204060
#	223198
#	235119
#
# Disc length: 3394 seconds
#
# Revision: 0
# Processed by: cddbd v1.5.2PL0 Copyright (c) Steve Scherf et al.
# Submitted via: EasyCDDAExtractor 16.0.8.2
#
DISCID=fb0d4012
DTITLE=Συλλογικός δίσκος - Τα 45άρια του τζουκ μποξ 3
DYEAR=2014
DGENRE=Ποικίλη
TTITLE0=Γλυκερία-Μητσάκης Γιώργος - Τα δαχτυλίδια [Γ. Μητσάκης]
TTITLE1=Πουλόπουλος Γιάννης - Τα ματόκλαδά σου λάμπουν [Μ. Βαμβακάρης]
TTITLE2=Βιτάλη Ελένη - Το τσαντιράκι [Νίκυ Γιάκοβλεφ-Διον. Τζεφρώνης]
TTITLE3=Χρηστάκης - Παίζουν τα μπαγλαμαδάκια [Γ. Ροβερτάκης-Γ. Γαβαλάς]
TTITLE4=Καζαντζίδης Στέλιος - Το τελευταίο βράδυ μου [Σ. Καζαντζίδης]
TTITLE5=Ζαγοραίος Σπύρος - Αλάνια [Β. Τσιτσάνης]
TTITLE6=Μητσιάς Μανώλης - Ο τρελλός [Άκης Πάνου]
TTITLE7=Πάνου Πόλυ - Στον Πειραιά συννέφιασε [Γ. Μητσάκης]
TTITLE8=Αγγελόπουλος Μανώλης - Όσο αξίζεις εσύ [Απ. Καλδάρας]
TTITLE9=Γλυκερία - Πήγα σε μάγισσες [Χ. Νικολόπουλος-Λ. Χαψιάδης]
TTITLE10=Μοσχολιού Βίκυ - Τι να φταίει [Γ. Ζαμπέτας-Δ. Χριστοδούλου]
TTITLE11=Περπινιάδης Βαγγέλης - Τα νέα της Αλεξάνδρας [Κ. Γιαννίδης]
TTITLE12=Νικολαΐδης Απόστολος - Κάτω στα Λεμονάδικα [Βαγγ. Παπάζογλου]
TTITLE13=Καναρίδης Μανώλης - Χάθηκες [Γ. Ζαμπέτας-Δ. Χριστοδούλου]
TTITLE14=Διονυσίου Στέλιος - Τα πήρες όλα [Θ. Πολυκανδριώτης-Γ. Πάριος]
TTITLE15=Κερμανίδης Πόλυς - Τα πλοία πεθαίνουν στα λιμάνια [Γ. Μητσάκης]
TTITLE16=Μιχαλόπουλος Πάνος - Μού τα φάγανε οι γυναίκες [Λ. Μπουρνέλης-Γ. Γκάμ
TTITLE16=αρης]
TTITLE17=Τσαουσάκης Πρόδρομος - Άσε με, άσε με [Γ. Παπαϊωάννου-Κ. Μάνεσης]
EXTD=
EXTT0=
EXTT1=
EXTT2=
EXTT3=
EXTT4=
EXTT5=
EXTT6=
EXTT7=
EXTT8=
EXTT9=
EXTT10=
EXTT11=
EXTT12=
EXTT13=
EXTT14=
EXTT15=
EXTT16=
EXTT17=
PLAYORDER=
